<?xml version="1.0" encoding="UTF-8" standalone="no"?>
<svg height="16px" viewBox="0 0 16 16" width="16px" xmlns="http://www.w3.org/2000/svg" xmlns:inkscape="http://www.inkscape.org/namespaces/inkscape" xmlns:sodipodi="http://sodipodi.sourceforge.net/DTD/sodipodi-0.dtd" xmlns:svg="http://www.w3.org/2000/svg" sodipodi:docname="music-queue-empty-symbolic.svg" inkscape:version="1.4.3 (0d15f75042, 2025-12-25)">
    <sodipodi:namedview pagecolor="#ffffff" bordercolor="#000000" borderopacity="0.25" inkscape:showpageshadow="2" inkscape:pageopacity="0.0" inkscape:pagecheckerboard="0" inkscape:deskcolor="#d1d1d1" inkscape:zoom="72.5" inkscape:cx="8" inkscape:cy="8" inkscape:window-width="2560" inkscape:window-height="1371" inkscape:window-x="0" inkscape:window-y="0" inkscape:window-maximized="1" inkscape:current-layer="svg5"/>
    <path d="m 1 3 l -0.40625 -0.40625 c -0.36553061 0.3626646 -0.59375 0.8606578 -0.59375 1.40625 v 8 c 0 0.726562 0.40625 1.367188 1 1.71875 z"/>
    <path d="m 4 6 l -2 -2 v 8 c 0 1.089844 0.90625 2 2 2 z"/>
    <path d="m 12 14 l -3 -3 s -1 0 -1 -1 l -3 -3 v 5.15625 c 0 1.003906 0.835938 1.84375 1.84375 1.84375 z"/>
    <path d="m 5 5 l 3 3 v -2 c 0 -1 1 -1 1 -1 c 0.195313 0 0.3906245 0.0585937 0.5546875 0.1679687 l 3.0000005 2 c 0.59375 0.394531 0.59375 1.2695315 0 1.6640626 l -2.234375 1.4882817 l 3.679687 3.679687 h 0.152344 c 1.007812 0 1.847656 -0.839844 1.847656 -1.84375 v -8.3125 c 0 -1.003906 -0.839844 -1.84375 -1.847656 -1.84375 h -7.308594 c -1.007812 0 -1.84375 0.839844 -1.84375 1.84375 z"/>
    <path d="m 2.5898438 2.5898438 l 1.4101562 1.4101562 v -2 c -0.5465077 0 -1.0469355 0.2265015 -1.4101562 0.5898438 z"/>
    <path d="m 1 1 l 1 -1 l 14 14 l -1 1 z" sodipodi:nodetypes="ccccc"/>
</svg>
