<?xml version="1.0" encoding="UTF-8" standalone="no"?>
<svg height="16px" viewBox="0 0 16 16" width="16px" xmlns="http://www.w3.org/2000/svg" xmlns:inkscape="http://www.inkscape.org/namespaces/inkscape" xmlns:sodipodi="http://sodipodi.sourceforge.net/DTD/sodipodi-0.dtd" xmlns:svg="http://www.w3.org/2000/svg" sodipodi:docname="no-lyrics-symbolic.svg" inkscape:version="1.4.3 (0d15f75042, 2025-12-25)">
    <sodipodi:namedview pagecolor="#ffffff" bordercolor="#000000" borderopacity="0.25" inkscape:showpageshadow="2" inkscape:pageopacity="0.0" inkscape:pagecheckerboard="0" inkscape:deskcolor="#d1d1d1" inkscape:zoom="51.265242" inkscape:cx="10.787036" inkscape:cy="7.529468" inkscape:window-width="2560" inkscape:window-height="1371" inkscape:window-x="0" inkscape:window-y="0" inkscape:window-maximized="1" inkscape:current-layer="svg5"/>
    <path d="m 3.625 1 c -0.7194823 0 -1.3761597 0.2960815 -1.8525391 0.7724609 l 1.2287598 1.2287598 c 0.1563722 -0.1563722 0.3742678 -0.2512207 0.6237793 -0.2512207 h 8.75 c 0.499023 0 0.875 0.375977 0.875 0.875 v 5.25 c 0 0.499023 -0.375977 0.875 -0.875 0.875 h -2.625 l 1.75 1.75 h 0.875 c 1.438965 0 2.625 -1.186035 2.625 -2.625 v -5.25 c 0 -1.4389646 -1.186035 -2.625 -2.625 -2.625 z m -2.510498 1.864502 c -0.0741258 0.2412784 -0.114502 0.496414 -0.114502 0.760498 v 5.25 c 0 1.438965 1.1860354 2.625 2.625 2.625 h 0.875 v 3.5 l 3.5 -3.5 h 1.75 l -1.75 -1.75 h -4.375 c -0.499023 0 -0.875 -0.375977 -0.875 -0.875 v -4.375 z m 2.510498 0.760498 l 1.75 1.75 h 6.125 v -1.75 z m 0 2.625 v 1.75 h 2.625 l -1.75 -1.75 z m 2.625 0 l 1.75 1.75 h 0.875 v -1.75 z" stroke-width="0.875"/>
    <path d="m 1 1 l 14 14 l 1 -1 l -14 -14 z" sodipodi:nodetypes="ccccc"/>
</svg>
